<?xml version="1.0" encoding="UTF-8"?>
<svg xmlns="http://www.w3.org/2000/svg" style="display:none" aria-hidden="true">
  <defs>
    <style>
      .ln { fill: none; stroke: currentColor; stroke-width: 2.2; stroke-linecap: round; stroke-linejoin: round; }
      .ln-thin { fill: none; stroke: currentColor; stroke-width: 1.6; stroke-linecap: round; stroke-linejoin: round; }
      .fl { fill: currentColor; }
      .fl-soft { fill: currentColor; opacity: 0.18; }
    </style>
  </defs>

  <!-- ===========================================================
       DOODLES — Pastries (32x32 viewBox)
       Hand-crafted line art; recolorable via currentColor.
       =========================================================== -->

  <symbol id="doodle-croissant" viewBox="0 0 32 32">
    <title>Croissant</title>
    <path class="ln" d="M5 19 C 6 12, 12 7, 17 7 C 22 7, 27 11, 27 16 C 27 21, 22 25, 16 25 C 12 25, 8 23, 5 19 Z"/>
    <path class="ln-thin" d="M9 17 L 11 14 M13 19 L 16 13 M17 20 L 21 14 M21 21 L 24 16"/>
    <path class="ln-thin" d="M5 19 C 4 19, 3 20, 4 22"/>
    <path class="ln-thin" d="M27 16 C 28 15, 30 16, 29 18"/>
  </symbol>

  <symbol id="doodle-baguette" viewBox="0 0 32 32">
    <title>Baguette</title>
    <path class="ln" d="M4 22 C 3 18, 6 11, 12 8 C 18 5, 26 8, 28 13 C 30 18, 26 25, 20 27 C 14 29, 6 27, 4 22 Z"/>
    <path class="ln-thin" d="M9 18 L 13 14 M14 20 L 18 16 M19 22 L 23 18 M11 22 L 15 18"/>
  </symbol>

  <symbol id="doodle-loaf" viewBox="0 0 32 32">
    <title>Bread loaf</title>
    <path class="ln" d="M5 21 C 5 14, 10 9, 16 9 C 22 9, 27 14, 27 21 L 27 24 C 27 25, 26 26, 25 26 L 7 26 C 6 26, 5 25, 5 24 Z"/>
    <path class="ln-thin" d="M10 18 L 13 14 M16 18 L 19 13 M22 18 L 24 14"/>
  </symbol>

  <symbol id="doodle-cupcake" viewBox="0 0 32 32">
    <title>Cupcake</title>
    <path class="ln" d="M9 17 C 7 17, 6 15, 8 13 C 7 10, 11 8, 13 10 C 14 7, 19 7, 20 11 C 23 9, 26 12, 24 14 C 26 16, 24 18, 22 17"/>
    <path class="ln" d="M9 17 L 11 28 L 21 28 L 23 17 Z"/>
    <path class="ln-thin" d="M12 19 L 12 26 M15 19 L 15 26 M18 19 L 18 26 M21 19 L 20 26"/>
    <circle class="fl" cx="16" cy="9" r="0.9"/>
  </symbol>

  <symbol id="doodle-donut" viewBox="0 0 32 32">
    <title>Donut</title>
    <circle class="ln" cx="16" cy="16" r="10"/>
    <circle class="ln" cx="16" cy="16" r="3.5"/>
    <path class="ln-thin" d="M9 11 C 8 9, 12 8, 12 10 M22 9 C 24 8, 25 12, 23 12 M25 18 C 27 19, 25 22, 24 21 M9 22 C 7 22, 8 18, 10 19 M14 7 C 14 6, 16 6, 17 7"/>
  </symbol>

  <symbol id="doodle-cookie" viewBox="0 0 32 32">
    <title>Cookie</title>
    <path class="ln" d="M16 4 C 22 4, 28 9, 28 16 C 28 23, 23 28, 16 28 C 9 28, 4 23, 4 16 C 4 12, 7 8, 10 7 C 11 9, 13 9, 14 7 C 15 5, 15 4, 16 4 Z"/>
    <circle class="fl" cx="12" cy="13" r="1.5"/>
    <circle class="fl" cx="20" cy="11" r="1.2"/>
    <circle class="fl" cx="22" cy="18" r="1.5"/>
    <circle class="fl" cx="14" cy="20" r="1.3"/>
    <circle class="fl" cx="18" cy="23" r="1"/>
  </symbol>

  <symbol id="doodle-eclair" viewBox="0 0 32 32">
    <title>Eclair</title>
    <path class="ln" d="M4 18 C 4 14, 8 12, 14 12 L 22 12 C 26 12, 28 14, 28 17 C 28 20, 26 22, 22 22 L 14 22 C 8 22, 4 20, 4 18 Z"/>
    <path class="ln" d="M5 16 C 7 14, 10 14, 14 14 L 22 14 C 25 14, 26 15, 27 17"/>
    <path class="ln-thin" d="M9 18 L 11 19 M13 18 L 15 19 M17 18 L 19 19 M21 18 L 23 19"/>
  </symbol>

  <symbol id="doodle-pretzel" viewBox="0 0 32 32">
    <title>Pretzel</title>
    <path class="ln" d="M16 5 C 11 5, 8 9, 8 13 C 8 17, 12 19, 16 17 C 20 19, 24 17, 24 13 C 24 9, 21 5, 16 5 Z"/>
    <path class="ln" d="M11 14 C 9 17, 9 22, 13 24 C 16 25, 19 23, 19 20"/>
    <path class="ln" d="M21 14 C 23 17, 23 22, 19 24 C 16 25, 13 23, 13 20"/>
  </symbol>

  <!-- ===========================================================
       UTENSILS
       =========================================================== -->

  <symbol id="utensil-rolling-pin" viewBox="0 0 32 32">
    <title>Rolling pin</title>
    <rect class="ln" x="6" y="11" width="20" height="10" rx="2"/>
    <line class="ln" x1="2" y1="16" x2="6" y2="16"/>
    <line class="ln" x1="26" y1="16" x2="30" y2="16"/>
    <line class="ln-thin" x1="10" y1="14" x2="10" y2="18"/>
    <line class="ln-thin" x1="22" y1="14" x2="22" y2="18"/>
  </symbol>

  <symbol id="utensil-whisk" viewBox="0 0 32 32">
    <title>Whisk</title>
    <line class="ln" x1="16" y1="3" x2="16" y2="14"/>
    <path class="ln" d="M9 14 C 9 22, 12 28, 16 28 C 20 28, 23 22, 23 14"/>
    <path class="ln-thin" d="M12 14 C 12 22, 14 27, 16 27 M20 14 C 20 22, 18 27, 16 27 M9 14 L 23 14"/>
    <circle class="ln" cx="16" cy="3" r="2"/>
  </symbol>

  <symbol id="utensil-bowl" viewBox="0 0 32 32">
    <title>Mixing bowl</title>
    <path class="ln" d="M3 13 L 29 13 C 28 22, 22 28, 16 28 C 10 28, 4 22, 3 13 Z"/>
    <ellipse class="ln-thin" cx="16" cy="13" rx="13" ry="2.5"/>
    <path class="ln-thin" d="M10 18 C 11 16, 14 16, 15 18 C 16 20, 18 20, 19 18 C 20 16, 22 16, 23 18"/>
  </symbol>

  <symbol id="utensil-oven" viewBox="0 0 32 32">
    <title>Oven</title>
    <rect class="ln" x="4" y="5" width="24" height="22" rx="2"/>
    <line class="ln" x1="4" y1="11" x2="28" y2="11"/>
    <rect class="ln-thin" x="8" y="14" width="16" height="10" rx="1"/>
    <circle class="fl" cx="9" cy="8" r="1"/>
    <circle class="fl" cx="13" cy="8" r="1"/>
    <line class="ln-thin" x1="22" y1="8" x2="25" y2="8"/>
    <path class="ln-thin" d="M12 21 C 12 18, 14 17, 16 17 C 18 17, 20 18, 20 21"/>
  </symbol>

  <symbol id="utensil-timer" viewBox="0 0 32 32">
    <title>Timer</title>
    <circle class="ln" cx="16" cy="18" r="9"/>
    <line class="ln" x1="16" y1="18" x2="16" y2="11"/>
    <line class="ln" x1="16" y1="18" x2="20" y2="20"/>
    <rect class="ln" x="13" y="3" width="6" height="3" rx="0.6"/>
    <line class="ln" x1="14" y1="6" x2="14" y2="9"/>
    <line class="ln" x1="18" y1="6" x2="18" y2="9"/>
  </symbol>

  <symbol id="utensil-scale" viewBox="0 0 32 32">
    <title>Scale</title>
    <line class="ln" x1="3" y1="10" x2="29" y2="10"/>
    <line class="ln" x1="16" y1="6" x2="16" y2="10"/>
    <circle class="fl" cx="16" cy="5" r="1.5"/>
    <path class="ln" d="M3 10 L 1 18 C 1 21, 5 22, 9 22 C 13 22, 17 21, 15 18 Z"/>
    <path class="ln" d="M29 10 L 31 18 C 31 21, 27 22, 23 22 C 19 22, 15 21, 17 18 Z"/>
    <line class="ln-thin" x1="10" y1="22" x2="10" y2="28"/>
    <line class="ln-thin" x1="22" y1="22" x2="22" y2="28"/>
    <line class="ln-thin" x1="6" y1="28" x2="14" y2="28"/>
    <line class="ln-thin" x1="18" y1="28" x2="26" y2="28"/>
  </symbol>

  <!-- ===========================================================
       DECORATIONS
       =========================================================== -->

  <symbol id="deco-wheat" viewBox="0 0 32 32">
    <title>Wheat sheaf</title>
    <line class="ln" x1="16" y1="4" x2="16" y2="28"/>
    <path class="ln" d="M16 8 C 13 7, 11 8, 11 11 C 11 11, 13 12, 16 11"/>
    <path class="ln" d="M16 8 C 19 7, 21 8, 21 11 C 21 11, 19 12, 16 11"/>
    <path class="ln" d="M16 14 C 12 13, 9 14, 9 18 C 9 18, 12 19, 16 18"/>
    <path class="ln" d="M16 14 C 20 13, 23 14, 23 18 C 23 18, 20 19, 16 18"/>
    <path class="ln" d="M16 21 C 11 20, 7 22, 7 26 C 7 26, 11 27, 16 26"/>
    <path class="ln" d="M16 21 C 21 20, 25 22, 25 26 C 25 26, 21 27, 16 26"/>
  </symbol>

  <symbol id="deco-sparkle" viewBox="0 0 32 32">
    <title>Sparkle</title>
    <path class="ln" d="M16 4 L 18 14 L 28 16 L 18 18 L 16 28 L 14 18 L 4 16 L 14 14 Z"/>
  </symbol>

  <symbol id="deco-heart" viewBox="0 0 32 32">
    <title>Heart</title>
    <path class="ln" d="M16 27 C 4 18, 4 7, 12 7 C 14 7, 16 9, 16 12 C 16 9, 18 7, 20 7 C 28 7, 28 18, 16 27 Z"/>
  </symbol>

  <symbol id="deco-swirl" viewBox="0 0 32 32">
    <title>Swirl</title>
    <path class="ln" d="M4 16 C 4 9, 11 4, 18 6 C 25 8, 28 16, 22 22 C 18 26, 12 24, 11 19 C 10 15, 14 12, 17 14 C 20 16, 18 20, 16 19"/>
  </symbol>

  <symbol id="deco-star" viewBox="0 0 32 32">
    <title>Star</title>
    <path class="ln" d="M16 4 L 19.5 12 L 28 13 L 21.5 19 L 23.5 28 L 16 23 L 8.5 28 L 10.5 19 L 4 13 L 12.5 12 Z"/>
  </symbol>

  <!-- ===========================================================
       STATUS GLYPHS — small, used inside Stamp / StatusBadge
       =========================================================== -->

  <symbol id="glyph-check" viewBox="0 0 24 24">
    <title>Done</title>
    <path class="ln" d="M5 13 L 10 18 L 19 7"/>
  </symbol>

  <symbol id="glyph-x" viewBox="0 0 24 24">
    <title>Cancelled</title>
    <path class="ln" d="M6 6 L 18 18 M18 6 L 6 18"/>
  </symbol>

  <symbol id="glyph-clock" viewBox="0 0 24 24">
    <title>Pending</title>
    <circle class="ln" cx="12" cy="12" r="8"/>
    <path class="ln" d="M12 7 L 12 12 L 16 14"/>
  </symbol>

  <symbol id="glyph-fire" viewBox="0 0 24 24">
    <title>Baking</title>
    <path class="ln" d="M12 3 C 13 7, 16 9, 16 13 C 16 14, 15 16, 14 16 C 14 14, 13 13, 12 13 C 11 13, 10 14, 10 16 C 8 15, 6 13, 6 11 C 6 9, 9 7, 9 4 C 10 5, 12 5, 12 3 Z M7 16 C 6 18, 6 21, 12 22 C 18 21, 18 18, 17 16 C 16 18, 14 19, 12 19 C 10 19, 8 18, 7 16 Z"/>
  </symbol>

  <symbol id="glyph-arrow-right" viewBox="0 0 24 24">
    <title>Continue</title>
    <path class="ln" d="M5 12 L 19 12 M13 6 L 19 12 L 13 18"/>
  </symbol>

  <symbol id="glyph-plus" viewBox="0 0 24 24">
    <title>Add</title>
    <path class="ln" d="M12 5 L 12 19 M5 12 L 19 12"/>
  </symbol>

  <symbol id="glyph-pencil" viewBox="0 0 24 24">
    <title>Edit</title>
    <path class="ln" d="M4 20 L 8 19 L 19 8 L 16 5 L 5 16 Z M14 7 L 17 10"/>
  </symbol>

  <symbol id="glyph-trash" viewBox="0 0 24 24">
    <title>Delete</title>
    <path class="ln" d="M5 7 L 19 7 M9 7 L 9 4 L 15 4 L 15 7 M7 7 L 8 20 L 16 20 L 17 7 M11 11 L 11 17 M13 11 L 13 17"/>
  </symbol>

  <symbol id="glyph-search" viewBox="0 0 24 24">
    <title>Search</title>
    <circle class="ln" cx="11" cy="11" r="6"/>
    <path class="ln" d="M16 16 L 21 21"/>
  </symbol>

  <symbol id="glyph-sun" viewBox="0 0 24 24">
    <title>Light theme</title>
    <circle class="ln" cx="12" cy="12" r="4"/>
    <path class="ln" d="M12 2 L 12 5 M12 19 L 12 22 M2 12 L 5 12 M19 12 L 22 12 M5 5 L 7 7 M17 17 L 19 19 M5 19 L 7 17 M17 7 L 19 5"/>
  </symbol>

  <symbol id="glyph-moon" viewBox="0 0 24 24">
    <title>Dark theme</title>
    <path class="ln" d="M20 14 C 18 18, 14 20, 10 19 C 6 18, 4 14, 4 10 C 4 6, 7 3, 11 3 C 9 7, 11 13, 16 14 C 17 14, 19 14, 20 14 Z"/>
  </symbol>

  <!-- ===========================================================
       DECKLE EDGES — torn-paper bottom edge SVG paths.
       Use as <svg viewBox="0 0 200 12" preserveAspectRatio="none"><use href="#deckle-1"/></svg>
       at the bottom of a card (absolute, full width).
       =========================================================== -->

  <symbol id="deckle-1" viewBox="0 0 200 12" preserveAspectRatio="none">
    <path d="M0 0 L 200 0 L 200 7 L 192 5 L 184 9 L 176 4 L 168 8 L 160 3 L 152 7 L 144 5 L 136 9 L 128 4 L 120 8 L 112 5 L 104 9 L 96 4 L 88 8 L 80 5 L 72 9 L 64 4 L 56 8 L 48 5 L 40 9 L 32 4 L 24 8 L 16 5 L 8 9 L 0 6 Z" fill="currentColor"/>
  </symbol>

  <symbol id="deckle-2" viewBox="0 0 200 12" preserveAspectRatio="none">
    <path d="M0 0 L 200 0 L 200 5 L 195 9 L 188 5 L 180 8 L 173 4 L 165 9 L 157 5 L 149 8 L 141 4 L 133 9 L 125 5 L 117 8 L 109 4 L 101 9 L 93 5 L 85 8 L 77 4 L 69 9 L 61 5 L 53 8 L 45 4 L 37 9 L 29 5 L 21 8 L 13 4 L 5 9 L 0 7 Z" fill="currentColor"/>
  </symbol>

  <symbol id="deckle-3" viewBox="0 0 200 12" preserveAspectRatio="none">
    <path d="M0 0 L 200 0 L 200 8 L 190 4 L 178 9 L 165 5 L 152 8 L 138 4 L 124 9 L 110 5 L 96 8 L 82 4 L 68 9 L 54 5 L 40 8 L 26 4 L 12 9 L 0 5 Z" fill="currentColor"/>
  </symbol>

  <symbol id="deckle-4" viewBox="0 0 200 12" preserveAspectRatio="none">
    <path d="M0 0 L 200 0 L 200 6 C 195 9, 190 4, 185 7 C 180 10, 175 5, 170 8 C 165 4, 160 9, 155 6 C 150 3, 145 8, 140 5 C 135 9, 130 4, 125 7 C 120 10, 115 5, 110 8 C 105 4, 100 9, 95 6 C 90 3, 85 8, 80 5 C 75 9, 70 4, 65 7 C 60 10, 55 5, 50 8 C 45 4, 40 9, 35 6 C 30 3, 25 8, 20 5 C 15 9, 10 4, 5 7 C 2 9, 0 6, 0 6 Z" fill="currentColor"/>
  </symbol>

  <!-- ===========================================================
       WASHI TAPE PATTERNS — used inside .tape-strip elements
       Reference as background or inline SVG.
       =========================================================== -->

  <symbol id="tape-stripes" viewBox="0 0 24 24" preserveAspectRatio="none">
    <line x1="0" y1="0" x2="24" y2="24" stroke="currentColor" stroke-width="2" opacity="0.3"/>
    <line x1="-12" y1="0" x2="12" y2="24" stroke="currentColor" stroke-width="2" opacity="0.3"/>
    <line x1="12" y1="0" x2="36" y2="24" stroke="currentColor" stroke-width="2" opacity="0.3"/>
  </symbol>

  <symbol id="tape-dots" viewBox="0 0 24 24" preserveAspectRatio="none">
    <circle cx="6" cy="6" r="1.5" fill="currentColor" opacity="0.4"/>
    <circle cx="18" cy="6" r="1.5" fill="currentColor" opacity="0.4"/>
    <circle cx="6" cy="18" r="1.5" fill="currentColor" opacity="0.4"/>
    <circle cx="18" cy="18" r="1.5" fill="currentColor" opacity="0.4"/>
    <circle cx="12" cy="12" r="1.5" fill="currentColor" opacity="0.4"/>
  </symbol>

  <symbol id="tape-grid" viewBox="0 0 24 24" preserveAspectRatio="none">
    <line x1="8" y1="0" x2="8" y2="24" stroke="currentColor" stroke-width="0.8" opacity="0.4"/>
    <line x1="16" y1="0" x2="16" y2="24" stroke="currentColor" stroke-width="0.8" opacity="0.4"/>
    <line x1="0" y1="8" x2="24" y2="8" stroke="currentColor" stroke-width="0.8" opacity="0.4"/>
    <line x1="0" y1="16" x2="24" y2="16" stroke="currentColor" stroke-width="0.8" opacity="0.4"/>
  </symbol>
</svg>
